<svg width="24" height="24" viewBox="0 0 24 24" fill="none" xmlns="http://www.w3.org/2000/svg">
<g clip-path="url(#clip0_969_72596)">
<path d="M3.36364 18.9996H6.54545V11.2724L2 7.86328V17.636C2 18.3906 2.61136 18.9996 3.36364 18.9996Z" fill="#4285F4"/>
<path d="M17.4546 18.9996H20.6364C21.391 18.9996 22 18.3883 22 17.636V7.86328L17.4546 11.2724" fill="#34A853"/>
<path d="M17.4546 5.3636V11.2727L22 7.8636V6.04542C22 4.35905 20.075 3.39769 18.7273 4.40905" fill="#FBBC04"/>
<path d="M6.54541 11.2724V5.36328L12 9.45419L17.4545 5.36328V11.2724L12 15.3633" fill="#EA4335"/>
<path d="M2 6.04542V7.8636L6.54545 11.2727V5.3636L5.27273 4.40905C3.92273 3.39769 2 4.35905 2 6.04542Z" fill="#C5221F"/>
</g>
<defs>
<clipPath id="clip0_969_72596">
<rect width="20" height="15" fill="white" transform="translate(2 4)"/>
</clipPath>
</defs>
</svg>
