<svg width="24" height="24" viewBox="0 0 24 24" fill="none" xmlns="http://www.w3.org/2000/svg">
<g clip-path="url(#clip0_969_72603)">
<path d="M6.28346 14.5983C6.28346 15.7479 5.35432 16.677 4.20472 16.677C3.05511 16.677 2.12598 15.7479 2.12598 14.5983C2.12598 13.4487 3.05511 12.5195 4.20472 12.5195H6.28346V14.5983ZM7.32283 14.5983C7.32283 13.4487 8.25196 12.5195 9.40157 12.5195C10.5512 12.5195 11.4803 13.4487 11.4803 14.5983V19.7951C11.4803 20.9447 10.5512 21.8739 9.40157 21.8739C8.25196 21.8739 7.32283 20.9447 7.32283 19.7951V14.5983Z" fill="#E01E5A"/>
<path d="M9.40169 6.25123C8.25208 6.25123 7.32295 5.3221 7.32295 4.17249C7.32295 3.02288 8.25208 2.09375 9.40169 2.09375C10.5513 2.09375 11.4804 3.02288 11.4804 4.17249V6.25123H9.40169ZM9.40169 7.30635C10.5513 7.30635 11.4804 8.23548 11.4804 9.38509C11.4804 10.5347 10.5513 11.4638 9.40169 11.4638H4.18909C3.03949 11.4638 2.11035 10.5347 2.11035 9.38509C2.11035 8.23548 3.03949 7.30635 4.18909 7.30635H9.40169Z" fill="#36C5F0"/>
<path d="M17.7325 9.38509C17.7325 8.23548 18.6616 7.30635 19.8112 7.30635C20.9608 7.30635 21.89 8.23548 21.89 9.38509C21.89 10.5347 20.9608 11.4638 19.8112 11.4638H17.7325V9.38509ZM16.6931 9.38509C16.6931 10.5347 15.764 11.4638 14.6144 11.4638C13.4648 11.4638 12.5356 10.5347 12.5356 9.38509V4.17249C12.5356 3.02288 13.4648 2.09375 14.6144 2.09375C15.764 2.09375 16.6931 3.02288 16.6931 4.17249V9.38509Z" fill="#2EB67D"/>
<path d="M14.6144 17.7164C15.764 17.7164 16.6931 18.6455 16.6931 19.7951C16.6931 20.9447 15.764 21.8739 14.6144 21.8739C13.4648 21.8739 12.5356 20.9447 12.5356 19.7951V17.7164H14.6144ZM14.6144 16.677C13.4648 16.677 12.5356 15.7479 12.5356 14.5983C12.5356 13.4487 13.4648 12.5195 14.6144 12.5195H19.827C20.9766 12.5195 21.9057 13.4487 21.9057 14.5983C21.9057 15.7479 20.9766 16.677 19.827 16.677H14.6144Z" fill="#ECB22E"/>
</g>
<defs>
<clipPath id="clip0_969_72603">
<rect width="20" height="20" fill="white" transform="translate(2 2)"/>
</clipPath>
</defs>
</svg>
